<svg id="my-svg" width="100%" xmlns="http://www.w3.org/2000/svg" xmlns:xlink="http://www.w3.org/1999/xlink" style="max-width: 700px; background-color: transparent;" viewBox="0 0 700 500" role="graphics-document document" aria-roledescription="xychart"><style>#my-svg{font-family:"trebuchet ms",verdana,arial,sans-serif;font-size:16px;fill:#333;}@keyframes edge-animation-frame{from{stroke-dashoffset:0;}}@keyframes dash{to{stroke-dashoffset:0;}}#my-svg .edge-animation-slow{stroke-dasharray:9,5!important;stroke-dashoffset:900;animation:dash 50s linear infinite;stroke-linecap:round;}#my-svg .edge-animation-fast{stroke-dasharray:9,5!important;stroke-dashoffset:900;animation:dash 20s linear infinite;stroke-linecap:round;}#my-svg .error-icon{fill:#552222;}#my-svg .error-text{fill:#552222;stroke:#552222;}#my-svg .edge-thickness-normal{stroke-width:1px;}#my-svg .edge-thickness-thick{stroke-width:3.5px;}#my-svg .edge-pattern-solid{stroke-dasharray:0;}#my-svg .edge-thickness-invisible{stroke-width:0;fill:none;}#my-svg .edge-pattern-dashed{stroke-dasharray:3;}#my-svg .edge-pattern-dotted{stroke-dasharray:2;}#my-svg .marker{fill:#333333;stroke:#333333;}#my-svg .marker.cross{stroke:#333333;}#my-svg svg{font-family:"trebuchet ms",verdana,arial,sans-serif;font-size:16px;}#my-svg p{margin:0;}#my-svg .node .neo-node{stroke:#9370DB;}#my-svg [data-look="neo"].node rect,#my-svg [data-look="neo"].cluster rect,#my-svg [data-look="neo"].node polygon{stroke:#9370DB;filter:drop-shadow(1px 2px 2px rgba(185, 185, 185, 1));}#my-svg [data-look="neo"].swimlane.cluster rect{filter:none;}#my-svg [data-look="neo"].node path{stroke:#9370DB;stroke-width:1px;}#my-svg [data-look="neo"].node .outer-path{filter:drop-shadow(1px 2px 2px rgba(185, 185, 185, 1));}#my-svg [data-look="neo"].node .neo-line path{stroke:#9370DB;filter:none;}#my-svg [data-look="neo"].node circle{stroke:#9370DB;filter:drop-shadow(1px 2px 2px rgba(185, 185, 185, 1));}#my-svg [data-look="neo"].node circle .state-start{fill:#000000;}#my-svg [data-look="neo"].icon-shape .icon{fill:#9370DB;filter:drop-shadow(1px 2px 2px rgba(185, 185, 185, 1));}#my-svg [data-look="neo"].icon-shape .icon-neo path{stroke:#9370DB;filter:drop-shadow(1px 2px 2px rgba(185, 185, 185, 1));}#my-svg :root{--mermaid-font-family:"trebuchet ms",verdana,arial,sans-serif;}</style><g/><g class="main"><rect width="700" height="500" class="background" fill="white"/><g class="chart-title"><text x="0" y="0" fill="#131300" font-size="20" dominant-baseline="middle" text-anchor="middle" transform="translate(350, 22) rotate(0)">Sales Revenue</text></g><g class="plot"><g class="bar-plot-0"><rect x="91.34687690734863" y="400.8571428571429" width="30.4" height="66.14285714285711" fill="#ECECFF" stroke="#ECECFF" stroke-width="0"/><rect x="143.84261537031693" y="342.7142857142857" width="30.4" height="124.28571428571428" fill="#ECECFF" stroke="#ECECFF" stroke-width="0"/><rect x="196.33835383328525" y="255.5" width="30.4" height="211.5" fill="#ECECFF" stroke="#ECECFF" stroke-width="0"/><rect x="248.83409229625357" y="214.8" width="30.4" height="252.2" fill="#ECECFF" stroke="#ECECFF" stroke-width="0"/><rect x="301.32983075922186" y="139.21428571428572" width="30.4" height="327.7857142857143" fill="#ECECFF" stroke="#ECECFF" stroke-width="0"/><rect x="353.82556922219015" y="81.07142857142856" width="30.4" height="385.92857142857144" fill="#ECECFF" stroke="#ECECFF" stroke-width="0"/><rect x="406.3213076851585" y="52" width="30.4" height="415" fill="#ECECFF" stroke="#ECECFF" stroke-width="0"/><rect x="458.8170461481268" y="98.51428571428573" width="30.4" height="368.48571428571427" fill="#ECECFF" stroke="#ECECFF" stroke-width="0"/><rect x="511.3127846110951" y="156.65714285714284" width="30.4" height="310.34285714285716" fill="#ECECFF" stroke="#ECECFF" stroke-width="0"/><rect x="563.8085230740633" y="197.35714285714283" width="30.4" height="269.64285714285717" fill="#ECECFF" stroke="#ECECFF" stroke-width="0"/><rect x="616.3042615370316" y="284.57142857142856" width="30.4" height="182.42857142857144" fill="#ECECFF" stroke="#ECECFF" stroke-width="0"/><rect x="668.8" y="342.7142857142857" width="30.4" height="124.28571428571428" fill="#ECECFF" stroke="#ECECFF" stroke-width="0"/></g><g class="line-plot-1"><path d="M106.547,400.857L159.043,342.714L211.538,255.5L264.034,214.8L316.53,139.214L369.026,81.071L421.521,52L474.017,98.514L526.513,156.657L579.009,197.357L631.504,284.571L684,342.714" fill="none" stroke="#8493A6" stroke-width="2"/></g></g><g class="bottom-axis"><g class="axis-line"><path d="M 90.54687690734863,468 L 700,468" fill="none" stroke="#131300" stroke-width="2"/></g><g class="label"><text x="0" y="0" fill="#131300" font-size="14" dominant-baseline="text-before-edge" text-anchor="middle" transform="translate(106.54687690734863, 479) rotate(0)">jan</text><text x="0" y="0" fill="#131300" font-size="14" dominant-baseline="text-before-edge" text-anchor="middle" transform="translate(159.04261537031692, 479) rotate(0)">feb</text><text x="0" y="0" fill="#131300" font-size="14" dominant-baseline="text-before-edge" text-anchor="middle" transform="translate(211.53835383328524, 479) rotate(0)">mar</text><text x="0" y="0" fill="#131300" font-size="14" dominant-baseline="text-before-edge" text-anchor="middle" transform="translate(264.03409229625356, 479) rotate(0)">apr</text><text x="0" y="0" fill="#131300" font-size="14" dominant-baseline="text-before-edge" text-anchor="middle" transform="translate(316.52983075922185, 479) rotate(0)">may</text><text x="0" y="0" fill="#131300" font-size="14" dominant-baseline="text-before-edge" text-anchor="middle" transform="translate(369.02556922219014, 479) rotate(0)">jun</text><text x="0" y="0" fill="#131300" font-size="14" dominant-baseline="text-before-edge" text-anchor="middle" transform="translate(421.5213076851585, 479) rotate(0)">jul</text><text x="0" y="0" fill="#131300" font-size="14" dominant-baseline="text-before-edge" text-anchor="middle" transform="translate(474.0170461481268, 479) rotate(0)">aug</text><text x="0" y="0" fill="#131300" font-size="14" dominant-baseline="text-before-edge" text-anchor="middle" transform="translate(526.5127846110951, 479) rotate(0)">sep</text><text x="0" y="0" fill="#131300" font-size="14" dominant-baseline="text-before-edge" text-anchor="middle" transform="translate(579.0085230740633, 479) rotate(0)">oct</text><text x="0" y="0" fill="#131300" font-size="14" dominant-baseline="text-before-edge" text-anchor="middle" transform="translate(631.5042615370317, 479) rotate(0)">nov</text><text x="0" y="0" fill="#131300" font-size="14" dominant-baseline="text-before-edge" text-anchor="middle" transform="translate(684, 479) rotate(0)">dec</text></g><g class="ticks"><path d="M 106.54687690734863,469 L 106.54687690734863,474" fill="none" stroke="#131300" stroke-width="2"/><path d="M 159.04261537031692,469 L 159.04261537031692,474" fill="none" stroke="#131300" stroke-width="2"/><path d="M 211.53835383328524,469 L 211.53835383328524,474" fill="none" stroke="#131300" stroke-width="2"/><path d="M 264.03409229625356,469 L 264.03409229625356,474" fill="none" stroke="#131300" stroke-width="2"/><path d="M 316.52983075922185,469 L 316.52983075922185,474" fill="none" stroke="#131300" stroke-width="2"/><path d="M 369.02556922219014,469 L 369.02556922219014,474" fill="none" stroke="#131300" stroke-width="2"/><path d="M 421.5213076851585,469 L 421.5213076851585,474" fill="none" stroke="#131300" stroke-width="2"/><path d="M 474.0170461481268,469 L 474.0170461481268,474" fill="none" stroke="#131300" stroke-width="2"/><path d="M 526.5127846110951,469 L 526.5127846110951,474" fill="none" stroke="#131300" stroke-width="2"/><path d="M 579.0085230740633,469 L 579.0085230740633,474" fill="none" stroke="#131300" stroke-width="2"/><path d="M 631.5042615370317,469 L 631.5042615370317,474" fill="none" stroke="#131300" stroke-width="2"/><path d="M 684,469 L 684,474" fill="none" stroke="#131300" stroke-width="2"/></g></g><g class="left-axis"><g class="axisl-line"><path d="M 89.54687690734863,44 L 89.54687690734863,467" fill="none" stroke="#131300" stroke-width="2"/></g><g class="label"><text x="0" y="0" fill="#131300" font-size="14" dominant-baseline="middle" text-anchor="end" transform="translate(78.54687690734863, 52) rotate(0)">11000</text><text x="0" y="0" fill="#131300" font-size="14" dominant-baseline="middle" text-anchor="end" transform="translate(78.54687690734863, 81.07142857142856) rotate(0)">10500</text><text x="0" y="0" fill="#131300" font-size="14" dominant-baseline="middle" text-anchor="end" transform="translate(78.54687690734863, 110.14285714285717) rotate(0)">10000</text><text x="0" y="0" fill="#131300" font-size="14" dominant-baseline="middle" text-anchor="end" transform="translate(78.54687690734863, 139.21428571428572) rotate(0)">9500</text><text x="0" y="0" fill="#131300" font-size="14" dominant-baseline="middle" text-anchor="end" transform="translate(78.54687690734863, 168.28571428571428) rotate(0)">9000</text><text x="0" y="0" fill="#131300" font-size="14" dominant-baseline="middle" text-anchor="end" transform="translate(78.54687690734863, 197.35714285714283) rotate(0)">8500</text><text x="0" y="0" fill="#131300" font-size="14" dominant-baseline="middle" text-anchor="end" transform="translate(78.54687690734863, 226.42857142857144) rotate(0)">8000</text><text x="0" y="0" fill="#131300" font-size="14" dominant-baseline="middle" text-anchor="end" transform="translate(78.54687690734863, 255.5) rotate(0)">7500</text><text x="0" y="0" fill="#131300" font-size="14" dominant-baseline="middle" text-anchor="end" transform="translate(78.54687690734863, 284.57142857142856) rotate(0)">7000</text><text x="0" y="0" fill="#131300" font-size="14" dominant-baseline="middle" text-anchor="end" transform="translate(78.54687690734863, 313.6428571428571) rotate(0)">6500</text><text x="0" y="0" fill="#131300" font-size="14" dominant-baseline="middle" text-anchor="end" transform="translate(78.54687690734863, 342.7142857142857) rotate(0)">6000</text><text x="0" y="0" fill="#131300" font-size="14" dominant-baseline="middle" text-anchor="end" transform="translate(78.54687690734863, 371.7857142857143) rotate(0)">5500</text><text x="0" y="0" fill="#131300" font-size="14" dominant-baseline="middle" text-anchor="end" transform="translate(78.54687690734863, 400.8571428571429) rotate(0)">5000</text><text x="0" y="0" fill="#131300" font-size="14" dominant-baseline="middle" text-anchor="end" transform="translate(78.54687690734863, 429.92857142857144) rotate(0)">4500</text><text x="0" y="0" fill="#131300" font-size="14" dominant-baseline="middle" text-anchor="end" transform="translate(78.54687690734863, 459) rotate(0)">4000</text></g><g class="ticks"><path d="M 88.54687690734863,52 L 83.54687690734863,52" fill="none" stroke="#131300" stroke-width="2"/><path d="M 88.54687690734863,81.07142857142856 L 83.54687690734863,81.07142857142856" fill="none" stroke="#131300" stroke-width="2"/><path d="M 88.54687690734863,110.14285714285717 L 83.54687690734863,110.14285714285717" fill="none" stroke="#131300" stroke-width="2"/><path d="M 88.54687690734863,139.21428571428572 L 83.54687690734863,139.21428571428572" fill="none" stroke="#131300" stroke-width="2"/><path d="M 88.54687690734863,168.28571428571428 L 83.54687690734863,168.28571428571428" fill="none" stroke="#131300" stroke-width="2"/><path d="M 88.54687690734863,197.35714285714283 L 83.54687690734863,197.35714285714283" fill="none" stroke="#131300" stroke-width="2"/><path d="M 88.54687690734863,226.42857142857144 L 83.54687690734863,226.42857142857144" fill="none" stroke="#131300" stroke-width="2"/><path d="M 88.54687690734863,255.5 L 83.54687690734863,255.5" fill="none" stroke="#131300" stroke-width="2"/><path d="M 88.54687690734863,284.57142857142856 L 83.54687690734863,284.57142857142856" fill="none" stroke="#131300" stroke-width="2"/><path d="M 88.54687690734863,313.6428571428571 L 83.54687690734863,313.6428571428571" fill="none" stroke="#131300" stroke-width="2"/><path d="M 88.54687690734863,342.7142857142857 L 83.54687690734863,342.7142857142857" fill="none" stroke="#131300" stroke-width="2"/><path d="M 88.54687690734863,371.7857142857143 L 83.54687690734863,371.7857142857143" fill="none" stroke="#131300" stroke-width="2"/><path d="M 88.54687690734863,400.8571428571429 L 83.54687690734863,400.8571428571429" fill="none" stroke="#131300" stroke-width="2"/><path d="M 88.54687690734863,429.92857142857144 L 83.54687690734863,429.92857142857144" fill="none" stroke="#131300" stroke-width="2"/><path d="M 88.54687690734863,459 L 83.54687690734863,459" fill="none" stroke="#131300" stroke-width="2"/></g><g class="title"><text x="0" y="0" fill="#131300" font-size="16" dominant-baseline="text-before-edge" text-anchor="middle" transform="translate(5, 255.5) rotate(270)">Revenue (in $)</text></g></g></g><g class="mermaid-tmp-group"/></svg>